<svg width="24" height="24" viewBox="0 0 24 24" fill="none" xmlns="http://www.w3.org/2000/svg">
<path d="M11.9974 8.79866C10.2347 8.79866 8.79611 10.2372 8.79611 12C8.79611 13.7628 10.2347 15.2014 11.9974 15.2014C13.7602 15.2014 15.1987 13.7628 15.1987 12C15.1987 10.2372 13.7602 8.79866 11.9974 8.79866ZM21.5989 12C21.5989 10.6743 21.6109 9.36064 21.5365 8.03735C21.462 6.50031 21.1114 5.13619 19.9875 4.01223C18.8611 2.88587 17.4994 2.53763 15.9624 2.46318C14.6367 2.38873 13.3231 2.40074 11.9998 2.40074C10.6741 2.40074 9.36048 2.38873 8.03721 2.46318C6.5002 2.53763 5.13611 2.88827 4.01217 4.01223C2.88583 5.13859 2.5376 6.50031 2.46315 8.03735C2.3887 9.36304 2.40071 10.6767 2.40071 12C2.40071 13.3233 2.3887 14.6394 2.46315 15.9627C2.5376 17.4997 2.88823 18.8639 4.01217 19.9878C5.13851 21.1142 6.5002 21.4624 8.03721 21.5369C9.36288 21.6113 10.6765 21.5993 11.9998 21.5993C13.3255 21.5993 14.6391 21.6113 15.9624 21.5369C17.4994 21.4624 18.8635 21.1118 19.9875 19.9878C21.1138 18.8615 21.462 17.4997 21.5365 15.9627C21.6133 14.6394 21.5989 13.3257 21.5989 12ZM11.9974 16.9258C9.27162 16.9258 7.07178 14.7259 7.07178 12C7.07178 9.27418 9.27162 7.0743 11.9974 7.0743C14.7232 7.0743 16.923 9.27418 16.923 12C16.923 14.7259 14.7232 16.9258 11.9974 16.9258ZM17.1248 8.02294C16.4884 8.02294 15.9744 7.50899 15.9744 6.87256C15.9744 6.23613 16.4884 5.72218 17.1248 5.72218C17.7612 5.72218 18.2751 6.23613 18.2751 6.87256C18.2753 7.02368 18.2457 7.17336 18.188 7.31301C18.1302 7.45267 18.0455 7.57956 17.9386 7.68642C17.8318 7.79328 17.7049 7.87801 17.5652 7.93576C17.4256 7.9935 17.2759 8.02313 17.1248 8.02294Z" fill="white"/>
</svg>
