<svg width="165" height="30" viewBox="0 0 165 30" fill="none" xmlns="http://www.w3.org/2000/svg">
<path d="M56.56 24.336C55.328 24.336 54.2453 24.14 53.312 23.748C52.3787 23.3373 51.632 22.7773 51.072 22.068C50.512 21.3587 50.176 20.5373 50.064 19.604H53.676C53.788 20.1453 54.0867 20.612 54.572 21.004C55.076 21.3773 55.72 21.564 56.504 21.564C57.288 21.564 57.8573 21.4053 58.212 21.088C58.5853 20.7707 58.772 20.4067 58.772 19.996C58.772 19.3987 58.5107 18.9973 57.988 18.792C57.4653 18.568 56.7373 18.3533 55.804 18.148C55.2067 18.0173 54.6 17.8587 53.984 17.672C53.368 17.4853 52.7987 17.252 52.276 16.972C51.772 16.6733 51.3613 16.3 51.044 15.852C50.7267 15.3853 50.568 14.816 50.568 14.144C50.568 12.912 51.0533 11.876 52.024 11.036C53.0133 10.196 54.3947 9.776 56.168 9.776C57.8107 9.776 59.1173 10.1587 60.088 10.924C61.0773 11.6893 61.6653 12.744 61.852 14.088H58.464C58.2587 13.0613 57.484 12.548 56.14 12.548C55.468 12.548 54.9453 12.6787 54.572 12.94C54.2173 13.2013 54.04 13.528 54.04 13.92C54.04 14.3307 54.3107 14.6573 54.852 14.9C55.3933 15.1427 56.112 15.3667 57.008 15.572C57.9787 15.796 58.8653 16.048 59.668 16.328C60.4893 16.5893 61.1427 16.9907 61.628 17.532C62.1133 18.0547 62.356 18.8107 62.356 19.8C62.3747 20.6587 62.1507 21.4333 61.684 22.124C61.2173 22.8147 60.5453 23.356 59.668 23.748C58.7907 24.14 57.7547 24.336 56.56 24.336ZM69.4789 24.336C68.2843 24.336 67.3043 24.1493 66.5389 23.776C65.7736 23.384 65.2043 22.8707 64.8309 22.236C64.4576 21.6013 64.2709 20.9013 64.2709 20.136C64.2709 18.848 64.7749 17.8027 65.7829 17C66.7909 16.1973 68.3029 15.796 70.3189 15.796H73.8469V15.46C73.8469 14.508 73.5763 13.808 73.0349 13.36C72.4936 12.912 71.8216 12.688 71.0189 12.688C70.2909 12.688 69.6563 12.8653 69.1149 13.22C68.5736 13.556 68.2376 14.06 68.1069 14.732H64.6069C64.7003 13.724 65.0363 12.8467 65.6149 12.1C66.2123 11.3533 66.9776 10.784 67.9109 10.392C68.8443 9.98133 69.8896 9.776 71.0469 9.776C73.0256 9.776 74.5843 10.2707 75.7229 11.26C76.8616 12.2493 77.4309 13.6493 77.4309 15.46V24H74.3789L74.0429 21.76C73.6323 22.5067 73.0536 23.1227 72.3069 23.608C71.5789 24.0933 70.6363 24.336 69.4789 24.336ZM70.2909 21.536C71.3176 21.536 72.1109 21.2 72.6709 20.528C73.2496 19.856 73.6136 19.0253 73.7629 18.036H70.7109C69.7589 18.036 69.0776 18.2133 68.6669 18.568C68.2563 18.904 68.0509 19.324 68.0509 19.828C68.0509 20.3693 68.2563 20.7893 68.6669 21.088C69.0776 21.3867 69.6189 21.536 70.2909 21.536ZM85.2191 24.336C83.4831 24.336 82.1391 23.7947 81.1871 22.712C80.2538 21.6293 79.7871 20.0427 79.7871 17.952V10.112H83.3431V17.616C83.3431 18.8107 83.5858 19.7253 84.0711 20.36C84.5564 20.9947 85.3218 21.312 86.3671 21.312C87.3564 21.312 88.1684 20.9573 88.8031 20.248C89.4564 19.5387 89.7831 18.5493 89.7831 17.28V10.112H93.3671V24H90.2031L89.9231 21.648C89.4938 22.4693 88.8684 23.1227 88.0471 23.608C87.2444 24.0933 86.3018 24.336 85.2191 24.336ZM99.1182 24L95.0582 10.112H97.4102L100.35 21.004L103.598 10.112H106.258L109.534 21.004L112.446 10.112H114.826L110.766 24H108.358L104.942 12.548L101.526 24H99.1182ZM120.715 24.336C119.558 24.336 118.597 24.14 117.831 23.748C117.066 23.356 116.497 22.8333 116.123 22.18C115.75 21.5267 115.563 20.8173 115.563 20.052C115.563 18.6333 116.105 17.5413 117.187 16.776C118.27 16.0107 119.745 15.628 121.611 15.628H125.363V15.46C125.363 14.2467 125.046 13.332 124.411 12.716C123.777 12.0813 122.927 11.764 121.863 11.764C120.949 11.764 120.155 11.9973 119.483 12.464C118.83 12.912 118.419 13.5747 118.251 14.452H115.843C115.937 13.444 116.273 12.5947 116.851 11.904C117.449 11.2133 118.186 10.6907 119.063 10.336C119.941 9.96267 120.874 9.776 121.863 9.776C123.805 9.776 125.261 10.2987 126.231 11.344C127.221 12.3707 127.715 13.7427 127.715 15.46V24H125.615L125.475 21.508C125.083 22.292 124.505 22.964 123.739 23.524C122.993 24.0653 121.985 24.336 120.715 24.336ZM121.079 22.348C121.975 22.348 122.741 22.1147 123.375 21.648C124.029 21.1813 124.523 20.5747 124.859 19.828C125.195 19.0813 125.363 18.2973 125.363 17.476V17.448H121.807C120.426 17.448 119.446 17.6907 118.867 18.176C118.307 18.6427 118.027 19.2307 118.027 19.94C118.027 20.668 118.289 21.256 118.811 21.704C119.353 22.1333 120.109 22.348 121.079 22.348ZM130.404 24V3.84H132.756V24H130.404ZM135.771 24V3.84H138.123V24H135.771ZM147.382 24.336C146.057 24.336 144.881 24.0373 143.854 23.44C142.827 22.824 142.015 21.9747 141.418 20.892C140.839 19.8093 140.55 18.5307 140.55 17.056C140.55 15.6 140.839 14.3307 141.418 13.248C141.997 12.1467 142.799 11.2973 143.826 10.7C144.871 10.084 146.075 9.776 147.438 9.776C148.782 9.776 149.939 10.084 150.91 10.7C151.899 11.2973 152.655 12.0907 153.178 13.08C153.701 14.0693 153.962 15.1333 153.962 16.272C153.962 16.4773 153.953 16.6827 153.934 16.888C153.934 17.0933 153.934 17.3267 153.934 17.588H142.874C142.93 18.652 143.173 19.5387 143.602 20.248C144.05 20.9387 144.601 21.4613 145.254 21.816C145.926 22.1707 146.635 22.348 147.382 22.348C148.353 22.348 149.165 22.124 149.818 21.676C150.471 21.228 150.947 20.6213 151.246 19.856H153.57C153.197 21.144 152.478 22.2173 151.414 23.076C150.369 23.916 149.025 24.336 147.382 24.336ZM147.382 11.764C146.262 11.764 145.263 12.1093 144.386 12.8C143.527 13.472 143.033 14.4613 142.902 15.768H151.638C151.582 14.5173 151.153 13.5373 150.35 12.828C149.547 12.1187 148.558 11.764 147.382 11.764ZM161.262 24C159.993 24 158.994 23.692 158.266 23.076C157.538 22.46 157.174 21.3493 157.174 19.744V12.1H154.766V10.112H157.174L157.482 6.78H159.526V10.112H163.614V12.1H159.526V19.744C159.526 20.6213 159.704 21.2187 160.058 21.536C160.413 21.8347 161.038 21.984 161.934 21.984H163.39V24H161.262Z" fill="white"/>
<g clip-path="url(#clip0_100:208)">
<path opacity="0.3" fill-rule="evenodd" clip-rule="evenodd" d="M0 30.3553L2 32.3553L19.6777 14.6777L2 -3L0 -1L15.6777 14.6777L0 30.3553Z" fill="#A9E34B"/>
<path fill-rule="evenodd" clip-rule="evenodd" d="M19.5 28.8553L23 32.3553L40.6777 14.6777L23 -3L19.5 0.5L33.6777 14.6777L19.5 28.8553Z" fill="#A9E34B"/>
<path opacity="0.6" fill-rule="evenodd" clip-rule="evenodd" d="M9.5 29.8553L12 32.3553L29.6777 14.6777L12 -3L9.5 -0.5L24.6777 14.6777L9.5 29.8553Z" fill="#A9E34B"/>
</g>
<defs>
<clipPath id="clip0_100:208">
<rect width="41" height="29" fill="white" transform="translate(0 1)"/>
</clipPath>
</defs>
</svg>
